Coordinates
version=1
nRows=27
nColumns=12
inDegrees=yes

Units are S.I. units (second, meters, Newtons, ...)
Angles are in degrees

endheader
time	SC_y	SC_z	SC_x	AC_y	AC_z	AC_x	GH_y	GH_z	GH_yy	EL_x	PS_y
       0.0              -51.53          11.43          44.12          60.38         -6.625         -3.255          -9.57           65.9         -160.7          128.3          86.59
   0.03859              -51.53          11.43          44.12          60.38         -6.623         -3.254         -9.557           65.9         -160.7          128.3          86.59
   0.07717              -51.52          11.42          44.12          60.38          -6.62         -3.253         -9.542          65.89         -160.7          128.3          86.59
    0.1158              -51.52          11.42          44.12          60.37         -6.618         -3.251         -9.527          65.88         -160.7          128.3          86.59
    0.1543              -51.52          11.42          44.12          60.37         -6.616          -3.25         -9.511          65.87         -160.7          128.3          86.59
    0.1929              -51.51          11.42          44.11          60.37         -6.613         -3.248         -9.493          65.87         -160.7          128.2          86.59
    0.2315              -51.51          11.41          44.11          60.37          -6.61         -3.247         -9.475          65.86         -160.7          128.2          86.59
    0.2701               -51.5          11.41          44.11          60.36         -6.608         -3.245         -9.455          65.85         -160.7          128.2          86.58
    0.3087               -51.5          11.41           44.1          60.36         -6.604         -3.243         -9.433          65.84         -160.7          128.2          86.58
    0.3473              -51.49           11.4           44.1          60.36         -6.601         -3.241         -9.411          65.83         -160.7          128.2          86.58
    0.3859              -51.49           11.4           44.1          60.36         -6.597         -3.239         -9.386          65.81         -160.7          128.1          86.58
    0.4244              -51.48          11.39          44.09          60.35         -6.593         -3.237          -9.36           65.8         -160.7          128.1          86.58
     0.463              -51.48          11.39          44.09          60.35         -6.589         -3.234         -9.331          65.79         -160.7          128.1          86.58
    0.5016              -51.47          11.38          44.09          60.34         -6.585         -3.232         -9.301          65.77         -160.7          128.0          86.58
    0.5402              -51.46          11.38          44.08          60.34          -6.58         -3.229         -9.268          65.76         -160.6          128.0          86.57
    0.5788              -51.46          11.37          44.08          60.34         -6.574         -3.226         -9.232          65.74         -160.6          128.0          86.57
    0.6174              -51.45          11.37          44.07          60.33         -6.569         -3.222         -9.192          65.72         -160.6          127.9          86.57
     0.656              -51.44          11.36          44.06          60.33         -6.562         -3.219          -9.15           65.7         -160.6          127.9          86.57
    0.6946              -51.43          11.35          44.06          60.32         -6.555         -3.214         -9.103          65.68         -160.6          127.8          86.57
    0.7331              -51.42          11.34          44.05          60.31         -6.548          -3.21         -9.052          65.66         -160.6          127.8          86.56
    0.7717               -51.4          11.33          44.04          60.31          -6.54         -3.205         -8.996          65.63         -160.6          127.7          86.56
    0.8103              -51.39          11.32          44.03           60.3         -6.531           -3.2         -8.935           65.6         -160.6          127.7          86.56
    0.8489              -51.37          11.31          44.02          60.29          -6.52         -3.194         -8.867          65.57         -160.6          127.6          86.55
    0.8875              -51.36           11.3          44.01          60.28         -6.509         -3.187         -8.791          65.53         -160.5          127.5          86.55
    0.9261              -51.34          11.28           44.0          60.27         -6.497          -3.18         -8.707          65.49         -160.5          127.4          86.55
    0.9647              -51.32          11.27          43.99          60.26         -6.483         -3.172         -8.614          65.45         -160.5          127.3          86.54
     1.003               -51.3          11.25          43.97          60.24         -6.468         -3.163         -8.509           65.4         -160.5          127.2          86.53
